<svg width="800" height="800" viewBox="0 0 800 800" fill="none" xmlns="http://www.w3.org/2000/svg">
<path d="M400 500C455.228 500 500 455.228 500 400C500 344.772 455.228 300 400 300C344.772 300 300 344.772 300 400C300 455.228 344.772 500 400 500Z" stroke="#E2A1FF" stroke-width="50"/>
<path d="M122.04 354.64C137.792 364.536 147.927 381.396 147.927 399.996C147.927 418.6 137.792 435.46 122.04 445.356C111.322 452.09 104.416 457.473 99.5023 463.876C88.7386 477.906 83.9883 495.633 86.2963 513.163C88.0269 526.31 95.7926 539.76 111.324 566.663C126.856 593.563 134.621 607.013 145.142 615.086C159.169 625.85 176.898 630.6 194.428 628.293C202.429 627.24 210.542 623.95 221.732 618.036C238.181 609.343 257.852 608.996 273.965 618.3C290.075 627.603 299.609 644.81 300.304 663.4C300.777 676.05 301.986 684.723 305.074 692.18C311.841 708.513 324.819 721.493 341.153 728.26C353.406 733.333 368.936 733.333 400 733.333C431.063 733.333 446.593 733.333 458.846 728.26C475.18 721.493 488.16 708.513 494.926 692.18C498.013 684.723 499.223 676.05 499.696 663.403C500.39 644.81 509.923 627.603 526.036 618.3C542.146 609 561.816 609.347 578.263 618.04C589.456 623.953 597.57 627.243 605.57 628.296C623.1 630.606 640.83 625.853 654.856 615.09C665.376 607.02 673.143 593.566 688.676 566.666C695.59 554.69 700.966 545.38 704.953 537.573M677.956 445.36C662.206 435.463 652.073 418.603 652.07 400.003C652.07 381.4 662.206 364.536 677.956 354.64C688.676 347.906 695.58 342.523 700.493 336.12C711.256 322.092 716.006 304.364 713.7 286.834C711.97 273.686 704.203 260.236 688.67 233.335C673.14 206.434 665.373 192.983 654.853 184.91C640.826 174.147 623.096 169.397 605.566 171.704C597.566 172.758 589.453 176.046 578.263 181.961C561.813 190.654 542.143 191.001 526.033 181.699C509.923 172.397 500.39 155.19 499.696 136.601C499.223 123.951 498.013 115.278 494.926 107.821C488.16 91.4858 475.18 78.5075 458.846 71.7412C446.593 66.6665 431.063 66.6665 400 66.6665C368.936 66.6665 353.406 66.6665 341.153 71.7412C324.819 78.5075 311.841 91.4858 305.074 107.821C301.986 115.278 300.777 123.949 300.304 136.598C299.608 155.188 290.075 172.397 273.963 181.699C257.852 191.001 238.182 190.653 221.735 181.96C210.544 176.045 202.43 172.756 194.428 171.703C176.898 169.395 159.169 174.145 145.142 184.909C134.622 192.981 126.856 206.432 111.324 233.333C104.41 245.309 99.0346 254.619 95.0456 262.424" stroke="#E2A1FF" stroke-width="50" stroke-linecap="round"/>
</svg>
